<svg width="144" height="27" viewBox="0 0 144 27" fill="none" xmlns="http://www.w3.org/2000/svg">
<path d="M1.00154 0.0415916C0.527982 0.137311 0.135026 0.555457 0.044344 1.05421C0.00907876 1.24061 -0.00603493 2.52527 0.00404086 4.70668C0.0191545 7.99643 0.0191545 8.07703 0.12495 8.2987C0.240822 8.55563 0.482641 8.81257 0.719422 8.94355C0.855445 9.01912 1.07711 9.0292 2.51291 9.04431C3.94367 9.05942 4.17542 9.04935 4.36686 8.97378C4.64898 8.86798 4.90591 8.64128 5.04697 8.37931C5.15781 8.17275 5.15781 8.16268 5.17292 4.69661C5.183 2.29353 5.17292 1.13985 5.13262 0.963526C5.06209 0.62095 4.84546 0.338827 4.51799 0.157463L4.25099 0.011364L2.73962 0.00128841C1.90837 -0.00374985 1.12749 0.011364 1.00154 0.0415916Z" fill="#37373D"/>
<path d="M17.541 0.0363426C17.1379 0.121986 16.8558 0.338615 16.6493 0.716457L16.5435 0.917974L16.5284 5.73924L16.5183 10.5655H8.75488C1.90334 10.5655 0.97637 10.5756 0.815157 10.6411C0.512883 10.7671 0.301292 10.9585 0.155193 11.2356L0.0191695 11.4976L0.00405582 18.1224C-0.00601998 21.7648 0.00405582 24.8883 0.0191695 25.0596C0.0645106 25.4777 0.286178 25.8505 0.618679 26.0571L0.865536 26.2082L2.4827 26.2233C3.60615 26.2334 4.16536 26.2183 4.31146 26.178C4.57846 26.1075 4.90089 25.8354 5.04699 25.5583L5.15782 25.3518L5.17294 20.5003L5.18301 15.6538H10.8506H16.5183L16.5284 20.5003L16.5435 25.3518L16.6543 25.5583C16.7954 25.8253 17.1127 26.0974 17.3697 26.1729C17.4956 26.2132 18.0901 26.2334 19.1481 26.2334H20.73L20.9919 26.1024C21.3093 25.9412 21.5511 25.649 21.6418 25.3115C21.6972 25.0999 21.7073 22.853 21.7073 13.1097C21.7073 -0.0996799 21.7325 0.862556 21.3798 0.454487C21.2841 0.338615 21.0977 0.192516 20.9617 0.127024C20.73 0.0161915 20.6846 0.0111523 19.2387 0.00107765C18.4226 -0.00396156 17.6568 0.0111523 17.541 0.0363426Z" fill="#37373D"/>
<path d="M25.5464 0.0364819C24.9317 0.16243 24.5438 0.696446 24.5892 1.35641C24.5992 1.53274 24.6446 1.74433 24.6899 1.83501C24.7856 2.02645 29.3298 8.57571 29.481 8.74196C29.5414 8.80242 29.7127 8.91829 29.8638 8.99386L30.146 9.12988H32.0352C34.1259 9.12988 34.1662 9.12484 34.5138 8.8125C34.8161 8.54045 34.9269 8.28855 34.9269 7.87041C34.9269 7.58325 34.9068 7.47242 34.801 7.28601C34.6196 6.95855 30.2316 0.651105 30.0301 0.429438C29.9394 0.32868 29.758 0.192657 29.6271 0.127165C29.3953 0.0112934 29.3701 0.0112925 27.5766 0.00121689C26.5791 -0.00382137 25.6673 0.0112925 25.5464 0.0364819Z" fill="#281ACA"/>
<path d="M45.1084 0.0314484C44.796 0.0868664 44.5391 0.232965 44.3577 0.459669C44.0605 0.832474 34.8361 14.1627 34.7202 14.3895L34.6044 14.6111V20.0067C34.6044 23.4728 34.6245 25.4678 34.6547 25.5837C34.7253 25.8305 35.0578 26.1983 35.3248 26.3293C35.5313 26.43 35.622 26.4351 37.214 26.4351C38.8161 26.4351 38.8967 26.43 39.1133 26.3293C39.2392 26.2688 39.4206 26.1277 39.5163 26.0169C39.8539 25.624 39.8438 25.8003 39.8438 20.707V16.1074L44.786 8.96868C48.1311 4.14741 49.7584 1.75945 49.8037 1.60327C49.98 1.03903 49.6425 0.353874 49.0631 0.0919037C48.912 0.0264111 48.6097 0.0112972 47.0984 0.00625992C46.116 0.0012207 45.2192 0.0112972 45.1084 0.0314484Z" fill="#37373D"/>
<path d="M53.7633 0.0362587C53.4862 0.0916748 53.2897 0.19747 53.0983 0.393948C52.7658 0.726448 52.7658 0.711334 52.7507 2.41414C52.7406 3.41165 52.7557 4.03131 52.791 4.16229C52.8665 4.45449 53.1336 4.77188 53.4207 4.91798L53.6676 5.04896L59.7937 5.07415C65.4714 5.10438 65.9348 5.10942 66.217 5.19506C66.756 5.35628 67.1238 5.56787 67.4664 5.92556C67.9399 6.41423 68.076 6.72658 68.1566 7.50242C68.2825 8.75182 67.7686 9.72917 66.7359 10.2128C65.8945 10.6058 66.2774 10.5806 59.5921 10.6108L53.6222 10.641L53.4207 10.7519C53.1587 10.8929 52.9723 11.0944 52.8464 11.3715C52.7507 11.5831 52.7406 11.699 52.7406 13.0844C52.7406 14.5404 52.7456 14.5756 52.8615 14.8275C52.9975 15.1248 53.3149 15.4119 53.592 15.4925C53.7331 15.5379 55.3402 15.553 59.6224 15.553C63.1741 15.553 65.6729 15.5731 66.0003 15.6034C68.1566 15.8099 69.4009 16.8578 69.411 18.48C69.4261 20.082 68.4639 20.9334 66.3983 21.14C66.0658 21.1753 63.6728 21.1954 59.7987 21.1954C53.7935 21.1954 53.718 21.2005 53.4963 21.3012C53.2192 21.4272 53.0177 21.6136 52.8766 21.8755C52.7708 22.067 52.7658 22.1476 52.7507 23.6489C52.7356 25.1703 52.7406 25.2257 52.8464 25.4776C52.9824 25.79 53.3149 26.0973 53.6071 26.1779C53.7683 26.2232 55.4308 26.2333 60.3226 26.2232C66.2321 26.2031 66.8669 26.193 67.3505 26.1174C70.4387 25.5985 72.7209 24.193 73.804 22.1375C74.4035 20.9889 74.6655 19.5783 74.5547 18.0921C74.469 16.9988 74.2927 16.3288 73.8443 15.4371C73.3708 14.49 72.6756 13.6386 71.8947 13.0542C71.6831 12.893 71.4866 12.7418 71.4614 12.7217C71.4362 12.7015 71.5269 12.5655 71.6629 12.4194C73.7033 10.2481 73.9703 6.17241 72.2473 3.56278C71.7385 2.79702 70.9324 1.99096 70.1415 1.45694C69.4009 0.958191 68.1767 0.45944 67.2245 0.268C65.9953 0.021143 66.0809 0.021143 59.844 0.00602913C56.6147 0.000989914 53.8792 0.0110683 53.7633 0.0362587Z" fill="#37373D"/>
<path d="M79.9101 0.036787C79.628 0.0972424 79.4466 0.198 79.2602 0.399515C78.9176 0.762243 78.9126 0.77232 78.8975 2.35422C78.8824 3.30638 78.8975 3.87566 78.9378 4.05199C79.0083 4.38953 79.2249 4.67669 79.5272 4.85805L79.769 4.99911L85.9405 5.0243C91.9658 5.05453 92.122 5.05453 92.5703 5.16033C93.4419 5.36184 94.0615 5.69434 94.6308 6.26866C95.19 6.83291 95.4419 7.46264 95.4973 8.42488C95.5477 9.37704 95.3865 10.0219 94.9684 10.5811C94.3386 11.4124 93.3159 11.891 91.8801 12.0219C91.5124 12.0572 89.2504 12.0774 85.5828 12.0774H79.8648L79.6028 12.2083C79.4567 12.2789 79.2703 12.4199 79.1897 12.5207C78.8723 12.9036 78.8824 12.6215 78.8975 19.2362L78.9126 25.2515L79.0184 25.453C79.1595 25.7099 79.361 25.9114 79.6179 26.0525C79.8144 26.1532 79.8748 26.1583 81.4819 26.1583C83.0084 26.1583 83.1595 26.1482 83.3208 26.0626C83.5676 25.9316 83.8145 25.6898 83.9404 25.453C84.0513 25.2515 84.0513 25.2464 84.0664 21.1556L84.0815 17.0649H87.1949C90.0967 17.0649 90.3134 17.0699 90.3839 17.1505C90.4242 17.2009 91.6585 19.1455 93.1195 21.473C94.5905 23.8056 95.8651 25.7804 95.9659 25.8711C96.2833 26.1684 96.4495 26.1885 98.4697 26.1734C100.203 26.1583 100.283 26.1532 100.475 26.0525C100.732 25.9114 100.933 25.7099 101.069 25.453C101.205 25.196 101.215 24.6721 101.094 24.4404C101.044 24.3547 99.9962 22.7325 98.7569 20.8383C97.5175 18.944 96.3135 17.1001 96.0817 16.7475L95.6636 16.1026L95.855 16.0271C96.3991 15.8004 97.0339 15.4679 97.4924 15.1706C98.107 14.7726 98.9987 13.9011 99.3765 13.3368C100.344 11.8859 100.767 10.1025 100.646 7.97651C100.52 5.85556 99.8148 4.1326 98.515 2.77236C97.0541 1.24084 95.4167 0.43478 93.0691 0.10228C92.5955 0.0317497 91.6383 0.0216732 86.3183 0.00655937C82.9127 0.00152206 80.026 0.0115967 79.9101 0.036787Z" fill="#37373D"/>
<path d="M106.611 0.0366211C106.334 0.0970745 106.147 0.192795 105.961 0.399349C105.613 0.762077 105.613 0.762077 105.598 2.41451C105.588 3.37675 105.603 3.98129 105.639 4.11228C105.719 4.40951 105.981 4.72186 106.288 4.88308L106.555 5.02414H107.835H109.115V15.0244C109.115 23.3973 109.125 25.0548 109.185 25.1959C109.281 25.4327 109.548 25.7198 109.79 25.8458C109.986 25.9516 110.067 25.9566 111.467 25.9717C112.45 25.9818 113.034 25.9717 113.221 25.9314C113.583 25.8558 113.881 25.6291 114.062 25.2815L114.203 25.0145V13.0042C114.203 2.32886 114.193 0.968632 114.127 0.807419C114.001 0.505144 113.81 0.293552 113.533 0.147455L113.271 0.0114307L110.047 0.00135612C108.273 0.00135612 106.727 0.016468 106.611 0.0366211Z" fill="#37373D"/>
<path d="M121.614 0.0366554C121.145 0.132374 120.752 0.535406 120.652 1.02408C120.616 1.20041 120.601 1.78984 120.611 2.69163C120.626 4.23322 120.636 4.27856 120.954 4.64129C121.044 4.74205 121.216 4.87807 121.327 4.93853L121.533 5.04936L127.201 5.07959C133.448 5.10982 133.035 5.08966 134.062 5.4272C135.448 5.89069 136.591 6.81262 137.498 8.21316C138.491 9.7346 138.959 11.785 138.798 13.906C138.627 16.1227 137.926 17.7902 136.586 19.1807C135.579 20.2235 134.551 20.7877 133.13 21.0799C132.768 21.1505 132.047 21.1656 127.1 21.1908C121.916 21.221 121.473 21.226 121.327 21.3066C121.09 21.4376 120.848 21.6946 120.732 21.9515C120.631 22.1681 120.626 22.2638 120.626 23.7399V25.3017L120.777 25.5737C120.939 25.8609 121.125 26.0322 121.422 26.1581C121.694 26.269 132.239 26.274 133.211 26.1581C135.579 25.8811 137.826 24.9138 139.544 23.4276C142.047 21.2663 143.529 18.3947 143.937 14.9236C144.032 14.0974 144.017 11.9059 143.906 11.12C143.599 8.88824 142.959 7.11993 141.866 5.47254C140.571 3.52288 138.813 1.98632 136.914 1.13492C136.234 0.832642 135.035 0.429611 134.38 0.288549C133.125 0.0165024 133.221 0.0215416 127.327 0.00642776C124.193 0.00138855 121.74 0.0114651 121.614 0.0366554Z" fill="#37373D"/>
</svg>
